<svg width="48" height="48" viewBox="0 0 48 48" fill="none" xmlns="http://www.w3.org/2000/svg">
<path d="M24 0C10.7566 0 0 10.7566 0 24C0 37.2434 10.7566 48 24 48C37.2434 48 48 37.2434 48 24C48 10.7566 37.2434 0 24 0ZM24 2C33.8476 2 42.157 8.46448 44.9688 17.375C44.8764 17.3261 44.7924 17.2621 44.6875 17.2188C44.0856 16.9698 43.2788 16.7714 42.2188 16.5938C40.0986 16.2384 36.9227 16 32.4062 16C29.5499 16 28.2813 16.5952 26.2812 16.9062C25.8344 16.491 25.1492 16 24 16C22.8512 16 22.1656 16.4912 21.7188 16.9062C19.7165 16.5952 18.4633 16 15.5938 16C11.0773 16 7.90139 16.2384 5.78125 16.5938C4.72118 16.7714 3.91442 16.9698 3.3125 17.2188C3.20758 17.2621 3.12361 17.3261 3.03125 17.375C5.843 8.46448 14.1524 2 24 2ZM15.5938 18C15.7446 18 15.8584 18.0276 16 18.0312C16.0171 18.5686 16.4585 19 17 19C17.4711 19 17.8315 18.6573 17.9375 18.2188C18.7171 18.346 19.4725 18.4896 20.25 18.6562C20.4333 18.8664 20.6992 19 21 19V21C20.4477 21 20 21.4477 20 22C20 22.5063 20.3869 22.9025 20.875 22.9688C20.6213 24.6408 20.0142 25.7484 19.1875 26.5C18.4114 27.2056 17.3389 27.6353 15.9688 27.8438C15.8893 27.3709 15.4954 27 15 27C14.4477 27 14 27.4477 14 28C13.2827 28 12.592 27.9389 11.9375 27.8125C11.8428 27.3587 11.4819 27 11 27C10.7089 27 10.4327 27.114 10.25 27.3125C9.94173 27.1911 9.6558 27.0561 9.375 26.9062C9.73392 26.7544 10 26.4142 10 26C10 25.4477 9.55229 25 9 25C8.45854 25 8.01708 25.4314 8 25.9688C7.65146 25.6655 7.35668 25.3216 7.09375 24.9688C7.59706 24.9166 8 24.5171 8 24C8 23.4477 7.55228 23 7 23C6.69923 23 6.43332 23.1336 6.25 23.3438C6.09546 22.8403 6 22.3123 6 21.75C6 20.3674 5.43902 19.4953 4.84375 18.9688C4.89801 18.9779 4.94315 19 5 19C5.31572 19 5.59798 18.8535 5.78125 18.625C5.88814 18.6014 5.96086 18.5848 6.09375 18.5625C6.65068 18.4692 7.34021 18.3878 8.09375 18.3125C8.23068 18.7015 8.56413 19 9 19C9.49543 19 9.88932 18.6291 9.96875 18.1562C10.5891 18.1175 11.2826 18.0876 12 18.0625C12.0332 18.5847 12.4694 19 13 19C13.5415 19 13.9829 18.5686 14 18.0312C14.5286 18.0237 15.0214 18 15.5938 18ZM24 18C24.6203 18 24.882 18.3673 25 18.5V21C25 24.1667 25.8036 26.5146 27.4375 28C29.0714 29.4854 31.3667 30 34 30C36.7014 30 39.1724 29.194 41 27.75C42.8276 26.306 44 24.1798 44 21.75C44 20.5566 44.22 20.4803 44.5 20.3125C44.64 20.2286 44.8318 20.1793 45.125 20.0312C45.2544 19.9659 45.4252 19.8583 45.5938 19.6875C45.8702 21.0819 46 22.5237 46 24C46 36.1626 36.1626 46 24 46C11.8374 46 2 36.1626 2 24C2 22.5237 2.12981 21.0819 2.40625 19.6875C2.5748 19.8583 2.74559 19.9659 2.875 20.0312C3.1682 20.1793 3.35998 20.2286 3.5 20.3125C3.78005 20.4803 4 20.5566 4 21.75C4 24.1798 5.17236 26.306 7 27.75C8.82764 29.194 11.2986 30 14 30C16.6333 30 18.9286 29.4854 20.5625 28C22.1964 26.5146 23 24.1667 23 21V18.5C23.1184 18.3671 23.3809 18 24 18ZM32.4062 18C32.9786 18 33.4714 18.0237 34 18.0312C34.0171 18.5686 34.4585 19 35 19C35.5306 19 35.9668 18.5847 36 18.0625C36.7174 18.0876 37.4109 18.1175 38.0312 18.1562C38.1107 18.6291 38.5046 19 39 19C39.4359 19 39.7693 18.7015 39.9062 18.3125C40.6598 18.3878 41.3493 18.4692 41.9062 18.5625C42.0391 18.5848 42.1119 18.6014 42.2188 18.625C42.402 18.8535 42.6843 19 43 19C43.0569 19 43.102 18.9779 43.1562 18.9688C42.561 19.4953 42 20.3674 42 21.75C42 22.3123 41.9045 22.8403 41.75 23.3438C41.5667 23.1336 41.3008 23 41 23C40.4477 23 40 23.4477 40 24C40 24.5171 40.4029 24.9166 40.9062 24.9688C40.6433 25.3216 40.3485 25.6655 40 25.9688C39.9829 25.4314 39.5415 25 39 25C38.4477 25 38 25.4477 38 26C38 26.4142 38.2661 26.7544 38.625 26.9062C38.3442 27.0561 38.0583 27.1911 37.75 27.3125C37.5673 27.114 37.2911 27 37 27C36.5181 27 36.1572 27.3587 36.0625 27.8125C35.408 27.9389 34.7173 28 34 28C34 27.4477 33.5523 27 33 27C32.5046 27 32.1107 27.3709 32.0312 27.8438C30.6611 27.6353 29.5886 27.2056 28.8125 26.5C27.9858 25.7484 27.3787 24.6408 27.125 22.9688C27.6131 22.9025 28 22.5063 28 22C28 21.4477 27.5523 21 27 21V19C27.3008 19 27.5667 18.8664 27.75 18.6562C28.5249 18.4905 29.2872 18.3458 30.0625 18.2188C30.1685 18.6573 30.5289 19 31 19C31.5415 19 31.9829 18.5686 32 18.0312C32.1436 18.0274 32.2532 18 32.4062 18ZM7 19C6.44772 19 6 19.4477 6 20C6 20.5523 6.44772 21 7 21C7.55228 21 8 20.5523 8 20C8 19.4477 7.55228 19 7 19ZM11 19C10.4477 19 10 19.4477 10 20C10 20.5523 10.4477 21 11 21C11.5523 21 12 20.5523 12 20C12 19.4477 11.5523 19 11 19ZM15 19C14.4477 19 14 19.4477 14 20C14 20.5523 14.4477 21 15 21C15.5523 21 16 20.5523 16 20C16 19.4477 15.5523 19 15 19ZM19 19C18.4477 19 18 19.4477 18 20C18 20.5523 18.4477 21 19 21C19.5523 21 20 20.5523 20 20C20 19.4477 19.5523 19 19 19ZM29 19C28.4477 19 28 19.4477 28 20C28 20.5523 28.4477 21 29 21C29.5523 21 30 20.5523 30 20C30 19.4477 29.5523 19 29 19ZM33 19C32.4477 19 32 19.4477 32 20C32 20.5523 32.4477 21 33 21C33.5523 21 34 20.5523 34 20C34 19.4477 33.5523 19 33 19ZM37 19C36.4477 19 36 19.4477 36 20C36 20.5523 36.4477 21 37 21C37.5523 21 38 20.5523 38 20C38 19.4477 37.5523 19 37 19ZM41 19C40.4477 19 40 19.4477 40 20C40 20.5523 40.4477 21 41 21C41.5523 21 42 20.5523 42 20C42 19.4477 41.5523 19 41 19ZM9 21C8.44772 21 8 21.4477 8 22C8 22.5523 8.44772 23 9 23C9.55229 23 10 22.5523 10 22C10 21.4477 9.55229 21 9 21ZM13 21C12.4477 21 12 21.4477 12 22C12 22.5523 12.4477 23 13 23C13.5523 23 14 22.5523 14 22C14 21.4477 13.5523 21 13 21ZM17 21C16.4477 21 16 21.4477 16 22C16 22.5523 16.4477 23 17 23C17.5523 23 18 22.5523 18 22C18 21.4477 17.5523 21 17 21ZM31 21C30.4477 21 30 21.4477 30 22C30 22.5523 30.4477 23 31 23C31.5523 23 32 22.5523 32 22C32 21.4477 31.5523 21 31 21ZM35 21C34.4477 21 34 21.4477 34 22C34 22.5523 34.4477 23 35 23C35.5523 23 36 22.5523 36 22C36 21.4477 35.5523 21 35 21ZM39 21C38.4477 21 38 21.4477 38 22C38 22.5523 38.4477 23 39 23C39.5523 23 40 22.5523 40 22C40 21.4477 39.5523 21 39 21ZM11 23C10.4477 23 10 23.4477 10 24C10 24.5523 10.4477 25 11 25C11.5523 25 12 24.5523 12 24C12 23.4477 11.5523 23 11 23ZM15 23C14.4477 23 14 23.4477 14 24C14 24.5523 14.4477 25 15 25C15.5523 25 16 24.5523 16 24C16 23.4477 15.5523 23 15 23ZM19 23C18.4477 23 18 23.4477 18 24C18 24.5523 18.4477 25 19 25C19.5523 25 20 24.5523 20 24C20 23.4477 19.5523 23 19 23ZM29 23C28.4477 23 28 23.4477 28 24C28 24.5523 28.4477 25 29 25C29.5523 25 30 24.5523 30 24C30 23.4477 29.5523 23 29 23ZM33 23C32.4477 23 32 23.4477 32 24C32 24.5523 32.4477 25 33 25C33.5523 25 34 24.5523 34 24C34 23.4477 33.5523 23 33 23ZM37 23C36.4477 23 36 23.4477 36 24C36 24.5523 36.4477 25 37 25C37.5523 25 38 24.5523 38 24C38 23.4477 37.5523 23 37 23ZM13 25C12.4477 25 12 25.4477 12 26C12 26.5523 12.4477 27 13 27C13.5523 27 14 26.5523 14 26C14 25.4477 13.5523 25 13 25ZM17 25C16.4477 25 16 25.4477 16 26C16 26.5523 16.4477 27 17 27C17.5523 27 18 26.5523 18 26C18 25.4477 17.5523 25 17 25ZM31 25C30.4477 25 30 25.4477 30 26C30 26.5523 30.4477 27 31 27C31.5523 27 32 26.5523 32 26C32 25.4477 31.5523 25 31 25ZM35 25C34.4477 25 34 25.4477 34 26C34 26.5523 34.4477 27 35 27C35.5523 27 36 26.5523 36 26C36 25.4477 35.5523 25 35 25ZM37.9062 31.9688C37.864 31.9765 37.8222 31.9869 37.7812 32C37.5559 32.0559 37.357 32.1885 37.2188 32.375C37.2188 32.375 32.5556 38 24 38C21.6333 38 20.0306 37.5379 19.0312 37.0938C18.0319 36.6496 17.7188 36.2812 17.7188 36.2812C17.6244 36.1869 17.5123 36.112 17.389 36.0609C17.2657 36.0098 17.1335 35.9835 17 35.9835C16.8665 35.9835 16.7343 36.0098 16.611 36.0609C16.4877 36.1119 16.3756 36.1868 16.2812 36.2812C16.1868 36.3756 16.1119 36.4877 16.0609 36.611C16.0098 36.7343 15.9835 36.8665 15.9835 37C15.9835 37.1335 16.0098 37.2657 16.0609 37.389C16.112 37.5123 16.1869 37.6244 16.2812 37.7188C16.2812 37.7188 16.9681 38.3504 18.2188 38.9062C19.4694 39.4621 21.3667 40 24 40C33.4444 40 38.7812 33.625 38.7812 33.625C38.9165 33.4728 39.0021 33.2828 39.0265 33.0806C39.051 32.8784 39.0131 32.6736 38.9179 32.4935C38.8228 32.3135 38.6749 32.1667 38.4942 32.0729C38.3134 31.9792 38.1083 31.9428 37.9062 31.9688Z" fill="white"/>
</svg>
