<svg width="2136" height="1601" viewBox="0 0 2136 1601" fill="none" xmlns="http://www.w3.org/2000/svg">
<path d="M1120.23 1600.82C986.221 1600.82 848.069 1562.84 708.717 1487.57C696.536 1480.99 691.995 1465.79 698.574 1453.61C705.154 1441.42 720.365 1436.9 732.54 1443.46C1031.84 1605.12 1308.2 1585.54 1577.39 1383.59C1588.46 1375.28 1604.18 1377.52 1612.49 1388.6C1620.79 1399.67 1618.55 1415.38 1607.48 1423.69C1468.07 1528.27 1322.51 1587.15 1174.86 1598.7C1156.74 1600.11 1138.52 1600.82 1120.23 1600.82Z" fill="white"/>
<path d="M0.780029 735.746L2123.51 604.153C2170.97 1049.78 2070.87 1237.23 1883.04 1292.67C1711.84 1343.2 1533.78 1350.28 1359.01 1246.45C1272.87 1195.28 1213.21 1123.17 1166.32 1052.2L1055.1 1038.1C983.923 1272.94 835.254 1408.56 607.051 1418.78C185.523 1437.67 9.06503 1166.87 0.780029 735.746Z" fill="white"/>
<path d="M198.171 1184.57C339.822 1208.77 485.901 1219.3 621.15 1184.57C755.365 1150.11 860.049 1054.01 954.834 958.202C919.847 1132.62 744.384 1266.95 497.389 1305.2C353.352 1327.51 245.996 1282.55 198.171 1184.57Z" fill="white"/>
<path d="M165.258 808.689C341.822 749.053 622.392 759.507 877.288 787.444C877.288 787.444 615.582 811.44 528.721 822.692C383.067 841.56 288.511 925.826 140.99 995.8C110.085 1002.72 101.242 960.425 101.597 897.61C101.824 857.488 127.245 821.529 165.258 808.689Z" fill="white"/>
<path d="M1166.32 785.877C1167.91 762.625 1181.68 744.998 1210.19 734.18C1468.96 690.826 1712.41 667.053 1932.75 672.783C1939.16 672.95 1942.74 680.694 1938.36 685.372C1932.4 691.734 1921.09 695.764 1904.19 697.365C1775.89 697.519 1645.28 723.199 1512.66 771.133C1468.43 787.12 1427.19 810.488 1390.88 840.381C1351.02 873.201 1311.64 903.761 1272.85 931.57C1272.65 931.647 1272.45 931.723 1272.26 931.798C1245.86 941.787 1216.04 929.977 1203.09 904.899C1183.53 867.032 1170.81 827.473 1166.32 785.877Z" fill="white"/>
<path d="M1323.51 1118.48C1318.16 1112.4 1323.49 1102.96 1331.47 1104.34C1603.7 1151.37 1792.02 1139.66 1898.97 1071L2061.21 963.639C2067.05 959.775 2074.66 964.602 2073.76 971.546C2061.97 1063.07 1962.95 1127.6 1816.98 1182.75C1611.76 1260.28 1443.51 1254.9 1323.51 1118.48Z" fill="white"/>
<path d="M502.611 189.006C510.388 183.083 532.071 162.942 540.168 153.365C555.459 135.832 575.85 122.295 595.484 110.174C646.866 78.3277 707.468 59.332 767.66 54.3122C815.453 49.8133 861.371 53.3736 907.875 64.5987C925.296 69.163 949.467 73.3862 964.313 83.8357C991.256 94.4357 978.064 136.085 950.089 129.538C914.696 129.493 879.903 115.297 843.195 117.677C792.768 121.08 745.786 135.524 702.09 160.949C663.412 183.455 626.671 221.004 584.825 235.828C574.028 239.615 558.518 247.728 548.433 249.912C519.502 256.177 510.966 230.781 503.656 213.027C503.624 212.95 497.389 204.672 502.611 189.006Z" fill="white"/>
<path d="M1297.88 23.8908C1396.6 -41.4261 1600.88 37.9904 1679.92 185.989C1684.99 195.476 1680.41 207.374 1670.2 210.755C1635.36 222.293 1597.74 206.339 1557.4 163.442C1556.74 162.74 1556.14 161.964 1555.6 161.162C1518.94 106.159 1472.1 69.9814 1411.53 59.2158C1407.67 58.5295 1403.66 59.2616 1400.25 61.2102C1364.51 81.6733 1330.63 75.4195 1297.88 52.7464C1287.76 45.7381 1287.61 30.684 1297.88 23.8908Z" fill="white"/>
<path d="M370.401 682.545L370.809 682.513C371.279 680.226 371.78 677.97 372.282 675.714C371.623 677.97 370.997 680.257 370.401 682.545ZM705.746 415.629C541.849 420.861 475.081 532.747 466.621 677.25L910.499 652.842C910.092 507.776 850.593 410.992 705.746 415.629ZM714.111 584.319C678.926 584.319 650.383 562.324 650.383 535.222C650.383 508.12 678.926 486.126 714.111 486.126C749.297 486.126 777.809 508.12 777.809 535.222C777.809 562.324 749.297 584.319 714.111 584.319Z" fill="white"/>
<path d="M714.112 486.125C749.297 486.125 777.809 508.12 777.809 535.222C777.809 562.324 749.297 584.319 714.112 584.319C678.926 584.319 650.383 562.324 650.383 535.222C650.383 508.12 678.926 486.125 714.112 486.125Z" fill="white"/>
<path d="M971.252 649.489L910.499 652.842C910.092 507.776 850.593 410.992 705.746 415.629C541.849 420.861 475.081 532.747 466.621 677.25L370.809 682.513C371.279 680.226 371.78 677.97 372.282 675.714C427.331 476.475 548.084 368.913 722.916 364.213C726.363 364.119 729.777 364.057 733.13 364.057C885.873 364.057 965.926 460.089 971.252 649.489Z" fill="white"/>
<path d="M1006 665.688C1005.43 561.103 983.503 479.326 940.86 422.616C894.426 360.892 824.525 329.592 733.13 329.592C729.464 329.592 725.736 329.654 721.976 329.748C624.941 332.38 542.1 364.495 475.833 425.216C407.499 487.817 358.872 579.275 331.268 697.114L326.005 719.485L911.22 687.307L1006.09 682.075L1006 665.688ZM910.499 652.842L466.621 677.25L370.809 682.513L370.401 682.545C370.997 680.257 371.623 677.97 372.282 675.714C427.331 476.475 548.084 368.913 722.916 364.213C726.363 364.119 729.777 364.057 733.13 364.057C885.873 364.057 965.926 460.089 971.252 649.489L910.499 652.842Z" fill="white"/>
<path d="M1540.71 634.544C1546.69 627.463 1550.14 619.035 1550.14 610.043C1550.14 584.507 1522.44 563.797 1488.26 563.797C1454.08 563.797 1426.38 584.507 1426.38 610.043C1426.38 621.354 1431.83 631.693 1440.85 639.683L1285.45 647.704C1302.52 557.813 1359.3 501.572 1481.21 495.682C1561.98 491.765 1627.97 542.93 1694.08 626.68L1540.71 634.544Z" fill="white"/>
<path d="M1550.14 610.043C1550.14 619.035 1546.69 627.463 1540.71 634.544L1440.85 639.683C1431.83 631.693 1426.38 621.354 1426.38 610.043C1426.38 584.507 1454.08 563.797 1488.26 563.797C1522.44 563.797 1550.14 584.507 1550.14 610.043Z" fill="white"/>
<path d="M1768.08 622.857L1694.08 626.68C1627.97 542.93 1561.98 491.765 1481.21 495.682C1359.3 501.572 1302.52 557.813 1285.45 647.704L1221.22 650.993C1242.77 512.538 1318.63 440.82 1446.87 437.843C1449.75 437.781 1452.63 437.749 1455.52 437.749C1562.77 437.749 1657.29 484.559 1737.38 577.113C1748.31 591.557 1758.56 606.847 1768.08 622.857Z" fill="white"/>
<path d="M1814.7 628.247C1716.54 477.822 1592.56 403.096 1446.12 406.511C1372.89 408.234 1313.52 430.981 1269.62 474.188C1224.88 518.209 1197.28 582.659 1187.57 665.782L1185.44 684.205L1829.59 651.025L1814.7 628.247ZM1768.08 622.857L1694.08 626.68L1540.71 634.544L1440.85 639.683L1285.45 647.704L1221.22 650.993C1242.77 512.538 1318.63 440.82 1446.87 437.843C1449.75 437.781 1452.63 437.749 1455.52 437.749C1562.77 437.749 1657.29 484.559 1737.38 577.113C1749.57 591.212 1761.44 606.377 1772.97 622.607L1768.08 622.857Z" fill="white"/>
</svg>
